<?xml version="1.0" encoding="utf-8"?>
<svg xml:space="preserve" viewBox="0 0 100 100" y="0px" x="0px" xmlns:xlink="http://www.w3.org/1999/xlink" xmlns="http://www.w3.org/2000/svg" id="圖層_1" version="1.1" style="height: 100%; width: 100%; background: rgba(241, 242, 243, 0); shape-rendering: auto;" width="32px" height="32px"><g class="ldl-scale" style="transform-origin: 50% 50%; transform: rotate(0deg) scale(1, 1);"><g class="ldl-ani"><g class="ldl-layer"><g class="ldl-ani" style="transform-origin: 50px 50px; transform: rotate(0deg); animation: 3.57143s linear -3.57143s infinite normal forwards running cycle-fea180ce-3565-45be-8266-676eade068ed;"><path d="M53.1,14.2l8.5,17.1c0.5,1,1.5,1.7,2.6,1.9 L83.1,36c2.8,0.4,4,3.9,1.9,5.9L71.3,55.2c-0.8,0.8-1.2,1.9-1,3.1l3.2,18.8c0.5,2.8-2.5,5-5,3.6l-16.9-8.9c-1-0.5-2.2-0.5-3.2,0 l-16.9,8.9c-2.5,1.3-5.5-0.8-5-3.6l3.2-18.8c0.2-1.1-0.2-2.3-1-3.1L15,41.9c-2-2-0.9-5.5,1.9-5.9l18.9-2.7c1.1-0.2,2.1-0.9,2.6-1.9 l8.5-17.1C48.2,11.6,51.8,11.6,53.1,14.2z" stroke-miterlimit="10" stroke-width="3.5" stroke="#333435" fill="#F5E169" style="fill: rgb(98, 193, 49); stroke: rgb(98, 193, 49);"></path></g></g><metadata xmlns:d="https://loading.io/stock/">
<d:name>star</d:name>
<d:tags>star,favorite</d:tags>
<d:license>by</d:license>
<d:slug>46446t</d:slug>
</metadata></g></g><style id="cycle-fea180ce-3565-45be-8266-676eade068ed" data-anikit="">@keyframes cycle-fea180ce-3565-45be-8266-676eade068ed
{
  0% {
    animation-timing-function: cubic-bezier(0.3333,0.3333,0.6667,0.6667);
    transform: rotate(0deg);
  }
  100% {
    transform: rotate(360deg);
  }
}</style><!-- [ldio] generated by https://loading.io/ --></svg>